<?xml version="1.0" encoding="utf-8"?>
<!-- Generator: Adobe Illustrator 19.1.0, SVG Export Plug-In . SVG Version: 6.00 Build 0)  -->
<svg version="1.1" id="Layer_1" xmlns="http://www.w3.org/2000/svg" xmlns:xlink="http://www.w3.org/1999/xlink" x="0px" y="0px"
	 viewBox="-270 362 70 70" enable-background="new -270 362 70 70" xml:space="preserve">
<g>
	<g>
		<g>
			<g>
				<path fill="#FFFFFF" d="M-235,427.2c-16.6,0-30.2-13.5-30.2-30.2c0-16.6,13.5-30.2,30.2-30.2c16.6,0,30.2,13.5,30.2,30.2
					C-204.8,413.6-218.4,427.2-235,427.2z"/>
			</g>
			<g>
				<path fill="#2C1B11" d="M-235,368.1c16,0,28.9,13,28.9,28.9c0,16-13,28.9-28.9,28.9c-16,0-28.9-13-28.9-28.9
					C-263.9,381-251,368.1-235,368.1 M-235,365.5c-17.3,0-31.5,14.1-31.5,31.5c0,17.3,14.1,31.5,31.5,31.5
					c17.3,0,31.5-14.1,31.5-31.5C-203.5,379.7-217.7,365.5-235,365.5L-235,365.5z"/>
			</g>
		</g>
	</g>
	<g>
		<g>
			<path fill="#92671C" d="M-235,429.5c-17.9,0-32.5-14.6-32.5-32.5c0-17.9,14.6-32.5,32.5-32.5s32.5,14.6,32.5,32.5
				C-202.5,414.9-217.1,429.5-235,429.5z M-235,365.8c-17.2,0-31.2,14-31.2,31.2c0,17.2,14,31.2,31.2,31.2c17.2,0,31.2-14,31.2-31.2
				C-203.8,379.8-217.8,365.8-235,365.8z"/>
		</g>
	</g>
	<g>
		<g>
			<path fill="#2C1B11" d="M-254,379.2h5.5c1,0,1.8,0.6,2.5,1.8c0.1,0.3,0.2,0.5,0.2,0.8v12.4c0,0.9-0.6,1.7-1.8,2.4
				c-0.4,0.1-0.7,0.2-0.9,0.2h-5.5c-0.1,0-0.1,0-0.1-0.1v-17.4C-254.1,379.2-254,379.2-254,379.2z M-251.2,381.5v12.9h1.8
				c0.3,0,0.5-0.2,0.7-0.5v-11.8c-0.2-0.4-0.5-0.5-0.7-0.5H-251.2z"/>
		</g>
		<g>
			<path fill="#2C1B11" d="M-242.9,379.2h4.8c0.1,0,0.2,0.8,0.3,2.3c0,0,0.5,5.1,1.5,15.3l-0.1,0h-2.7c-0.1,0-0.1,0-0.1-0.1
				c-0.1-1.4-0.2-2.2-0.2-2.6h-2.4c0,0.3-0.1,1.2-0.2,2.6l-0.1,0h-2.6c-0.1,0-0.1,0-0.1-0.1c0.4-4.2,0.9-10,1.7-17.4L-242.9,379.2z
				 M-240.6,381.4L-240.6,381.4l-0.8,10.4h1.8l-0.8-10.4H-240.6z"/>
		</g>
		<g>
			<path fill="#2C1B11" d="M-234.7,379.2h5.2c1.2,0,2.1,0.8,2.6,2.5c0,0.4,0.1,0.8,0.1,1v1.2c0,1.2-0.5,2.2-1.4,2.9
				c1.6,6.2,2.4,9.5,2.6,10l-0.1,0h-2.6c-0.1,0-0.3-0.6-0.5-1.7c0,0-0.7-2.5-1.9-7.4l-1.1,0.5v8.5c0,0.1,0,0.1-0.1,0.1h-2.6
				c-0.1,0-0.1,0-0.1-0.1v-17.4C-234.8,379.2-234.8,379.2-234.7,379.2z M-232,381.6v4.3c1.5-0.5,2.3-1,2.3-1.5v-2
				c0-0.4-0.3-0.7-0.8-0.8H-232z"/>
		</g>
		<g>
			<path fill="#2C1B11" d="M-224.5,379.2h2.7c0.1,0,0.1,0,0.1,0.1v4.2h0c1.5-2.8,2.3-4.3,2.4-4.3h3.2c0.1,0,0.1,0,0.1,0.1
				c-0.1,0.1-1.5,2.3-4.4,6.8l4.4,10.7l-0.1,0h-2.7c-0.1,0-1-2.4-2.8-7.3h0v7.2c0,0.1,0,0.1-0.1,0.1h-2.7c-0.1,0-0.1,0-0.1-0.1
				v-17.4C-224.5,379.2-224.5,379.2-224.5,379.2z"/>
		</g>
		<g>
			<path fill="#2C1B11" d="M-254.8,398.2h4.4c1.1,0,1.8,0.8,2.3,2.3c0,0.4,0,0.7,0,0.9v1.1c0,1.2-0.4,2.1-1.2,2.7
				c1.4,5.8,2.1,8.9,2.2,9.3l-0.1,0h-2.3c-0.1,0-0.2-0.5-0.4-1.6c0,0-0.6-2.3-1.6-6.9l-0.9,0.5v7.9c0,0.1,0,0.1-0.1,0.1h-2.3
				c-0.1,0-0.1,0-0.1-0.1L-254.8,398.2C-254.9,398.2-254.9,398.2-254.8,398.2z M-252.5,400.5v4c1.3-0.5,1.9-0.9,1.9-1.4v-1.9
				c0-0.4-0.2-0.7-0.7-0.7H-252.5z"/>
		</g>
		<g>
			<path fill="#2C1B11" d="M-241.5,398.2c0.9,0,1.6,0.6,2.2,1.7c0.1,0.3,0.2,0.7,0.2,1.1V412c0,1.3-0.7,2.3-2,2.8
				c-0.2,0-0.3,0-0.4,0h-2c-0.9,0-1.7-0.7-2.3-2l0-0.5v-11.4c0-1.2,0.7-2,2-2.6H-241.5z M-243.4,401.2v10.5c0,0.5,0.2,0.8,0.5,0.8
				h0.7c0.4-0.1,0.5-0.3,0.5-0.5V401c-0.1-0.4-0.3-0.5-0.5-0.5h-0.7C-243.2,400.4-243.4,400.7-243.4,401.2z"/>
		</g>
		<g>
			<path fill="#2C1B11" d="M-236.6,398.2h4.1c0.1,0,0.2,0.7,0.3,2.1c0,0,0.5,4.8,1.3,14.3l-0.1,0h-2.3c-0.1,0-0.1,0-0.1-0.1
				c-0.1-1.3-0.1-2.1-0.1-2.4h-2c0,0.3,0,1.1-0.1,2.5l-0.1,0h-2.3c-0.1,0-0.1,0-0.1-0.1C-237.8,410.7-237.4,405.3-236.6,398.2
				L-236.6,398.2z M-234.6,400.3L-234.6,400.3l-0.7,9.8h1.5L-234.6,400.3L-234.6,400.3z"/>
		</g>
		<g>
			<path fill="#2C1B11" d="M-227,398.3h2.1c0.9,0,1.6,0.6,2.2,1.8c0.1,0.3,0.1,0.5,0.1,0.8v2.3c0,0.1,0,0.1-0.1,0.1h-2.2
				c-0.1,0-0.1,0-0.1-0.1v-1.8c0-0.6-0.2-0.9-0.5-0.9h-0.7c-0.4,0.1-0.5,0.2-0.5,0.5v2.3c0,0.4,0.6,1.2,1.9,2.4l1.7,2
				c0.4,0.5,0.5,1.1,0.5,1.7v2.9c0,0.9-0.5,1.6-1.4,2.3c-0.3,0.2-0.7,0.3-1,0.3h-1.7c-1,0-1.8-0.6-2.3-1.9c-0.1-0.2-0.1-0.5-0.1-0.7
				v-2.7c0-0.1,0-0.1,0.1-0.1h2.3c0.1,0,0.1,0,0.1,0.1v2.7c0,0.3,0.3,0.5,0.8,0.5h0.2c0.4,0,0.6-0.2,0.6-0.5V412
				c0-1.9-0.1-2.9-0.4-3.1c-1.9-2.3-3-3.8-3.4-4.3c-0.1-0.3-0.2-0.6-0.2-0.8v-3c0-1.1,0.6-1.9,1.8-2.4
				C-227.2,398.3-227.1,398.3-227,398.3z"/>
		</g>
		<g>
			<path fill="#2C1B11" d="M-221.4,398.2h6.2c0.1,0,0.1,0,0.1,0.1v1.7c0,0.1,0,0.1-0.1,0.1h-1.9v14.6c0,0.1,0,0.1-0.1,0.1h-2.3
				c-0.1,0-0.1,0-0.1-0.1v-14.6h-1.8c-0.1,0-0.1,0-0.1-0.1L-221.4,398.2C-221.5,398.2-221.4,398.2-221.4,398.2z"/>
		</g>
	</g>
</g>
</svg>
